<svg xmlns="http://www.w3.org/2000/svg" width="200" height="200" fill="none">
  <path fill="url(#a)" fill-rule="evenodd" d="M100 153.877c41.147 0 76.851-26.337 94.627-42.204 7.162-6.393 7.162-17.076 0-23.469C176.851 72.337 141.147 46 99.999 46 58.852 46 23.148 72.337 5.372 88.204c-7.163 6.393-7.163 17.076 0 23.469 17.776 15.867 53.48 42.204 94.627 42.204Zm0-16.307c20.783 0 37.631-16.848 37.631-37.632 0-20.783-16.848-37.631-37.632-37.631-20.783 0-37.631 16.848-37.631 37.631 0 20.784 16.848 37.632 37.631 37.632Z" clip-rule="evenodd"/>
  <defs>
    <linearGradient id="a" x1="157.499" x2="106.827" y1="63.26" y2="158.86" gradientUnits="userSpaceOnUse">
      <stop offset=".051" stop-color="#009F78"/>
      <stop offset="1" stop-color="#009F78"/>
    </linearGradient>
  </defs>
</svg>
